<svg xmlns="http://www.w3.org/2000/svg" viewBox="0 0 484.96 341.64"><defs><style>.cls-1{fill:#0b456b;opacity:0.85;}.cls-2{fill:#fff;}</style></defs><title>Albany web logo A2</title><g id="Layer_2" data-name="Layer 2"><g id="Layer_1-2" data-name="Layer 1"><rect class="cls-1" x="22.04" y="22.04" width="440.87" height="297.56"/><path class="cls-2" d="M103.57,264.62a3.23,3.23,0,0,1,1.59.39,3.11,3.11,0,0,1,1.11,1.05l-.77.56a2.35,2.35,0,0,0-.81-.79,2.1,2.1,0,0,0-1.12-.29,2.26,2.26,0,0,0-.9.18,2,2,0,0,0-.71.48,2.26,2.26,0,0,0-.48.73,2.56,2.56,0,0,0-.17.93,2.52,2.52,0,0,0,.17.93,2.26,2.26,0,0,0,.48.73,2.2,2.2,0,0,0,.71.49,2.44,2.44,0,0,0,.9.17,2.19,2.19,0,0,0,1.12-.28,2.47,2.47,0,0,0,.81-.8l.77.56a3,3,0,0,1-1.11,1,3.23,3.23,0,0,1-1.59.39,3.44,3.44,0,0,1-1.29-.24,3.39,3.39,0,0,1-1-.68,3.26,3.26,0,0,1,0-4.63,3.25,3.25,0,0,1,2.34-.93Z"/><path class="cls-2" d="M111.67,264.62a3.25,3.25,0,0,1,2.33.93,3.27,3.27,0,0,1,.71,1,3.22,3.22,0,0,1,.26,1.28,3.19,3.19,0,0,1-1,2.32,3.3,3.3,0,0,1-2.33.92,3.22,3.22,0,0,1-3-2,3.4,3.4,0,0,1,0-2.56,3.27,3.27,0,0,1,.71-1,3.21,3.21,0,0,1,2.33-.93Zm0,.92a2.26,2.26,0,0,0-.9.18,1.94,1.94,0,0,0-.71.48,2,2,0,0,0-.47.73,2.47,2.47,0,0,0,0,1.85,2.18,2.18,0,0,0,.47.74,2.1,2.1,0,0,0,.71.49,2.44,2.44,0,0,0,.9.17,2.35,2.35,0,0,0,.89-.17,2.24,2.24,0,0,0,.72-.49,2.18,2.18,0,0,0,.47-.74,2.6,2.6,0,0,0,0-1.85,2.23,2.23,0,0,0-.47-.73,2.07,2.07,0,0,0-.72-.48A2.18,2.18,0,0,0,111.68,265.54Z"/><path class="cls-2" d="M121.68,269v-4.24h1v6.38h-.35l-3.82-4.34V271h-1v-6.38h.34Z"/><path class="cls-2" d="M130.19,265.62h-2.11V271h-1v-5.38H125v-.9h5.23Z"/><path class="cls-2" d="M136.6,265.62h-3.12v1.61h2.34v.88h-2.34v2h3.24v.9h-4.25v-6.28h4.13Z"/><path class="cls-2" d="M145.17,271h-1v-3.94l-1.81,2.36H142l-1.81-2.37V271h-1v-6.38h.34l2.64,3.51,2.64-3.51h.34Z"/><path class="cls-2" d="M150.37,264.72a2.71,2.71,0,0,1,.88.14,1.85,1.85,0,0,1,.67.39,1.76,1.76,0,0,1,.44.61,2,2,0,0,1,.15.78,1.94,1.94,0,0,1-.15.78,1.68,1.68,0,0,1-.44.61,1.87,1.87,0,0,1-.67.4,2.46,2.46,0,0,1-.88.14h-1.28V271h-1v-6.28Zm-1.28.9v2.06h1.27a1.13,1.13,0,0,0,.83-.29,1,1,0,0,0,.28-.74,1,1,0,0,0-.28-.74,1.09,1.09,0,0,0-.83-.29Z"/><path class="cls-2" d="M157.88,264.62a3.25,3.25,0,0,1,2.33.93,3.24,3.24,0,0,1,.7,1,3.06,3.06,0,0,1,.27,1.28,3.11,3.11,0,0,1-.27,1.29,3.24,3.24,0,0,1-.7,1,3.39,3.39,0,0,1-1.05.68,3.56,3.56,0,0,1-2.57,0,3.2,3.2,0,0,1-1.05-.69,3.08,3.08,0,0,1-.7-1,3.25,3.25,0,0,1,.7-3.59,3.25,3.25,0,0,1,2.34-.93Zm0,.92a2.26,2.26,0,0,0-.9.18,2.15,2.15,0,0,0-1.18,1.21,2.6,2.6,0,0,0,0,1.85,2.18,2.18,0,0,0,.47.74,2.2,2.2,0,0,0,.71.49,2.44,2.44,0,0,0,.9.17,2.37,2.37,0,0,0,.9-.17,2.2,2.2,0,0,0,.71-.49,2.36,2.36,0,0,0,.48-.74,2.6,2.6,0,0,0,0-1.85,2.44,2.44,0,0,0-.48-.73,2,2,0,0,0-.71-.48A2.19,2.19,0,0,0,157.88,265.54Z"/><path class="cls-2" d="M166,264.72a2.71,2.71,0,0,1,.88.14,1.85,1.85,0,0,1,.67.39,1.9,1.9,0,0,1,.44.61,2,2,0,0,1,.15.78,1.89,1.89,0,0,1-.32,1.09,1.87,1.87,0,0,1-.9.68l1.89,2.59h-1.15l-1.79-2.43h-1.15V271h-1v-6.28Zm-1.28.9v2.06H166a1.13,1.13,0,0,0,.83-.29,1,1,0,0,0,.29-.74,1,1,0,0,0-.29-.74,1.09,1.09,0,0,0-.83-.29Z"/><path class="cls-2" d="M176.34,271h-1.09l-.44-1.05H172l-.44,1.05h-1.08l2.77-6.38h.34Zm-4-1.91h2.1l-1-2.6Z"/><path class="cls-2" d="M181,264.72a2.66,2.66,0,0,1,.88.14,1.89,1.89,0,0,1,.68.39,1.74,1.74,0,0,1,.43.61,2,2,0,0,1,.15.78,1.82,1.82,0,0,1-.32,1.09,1.84,1.84,0,0,1-.89.68l1.89,2.59h-1.15l-1.8-2.43h-1.14V271h-1v-6.28Zm-1.27.9v2.06h1.25a1.17,1.17,0,0,0,.84-.29,1,1,0,0,0,.29-.74,1,1,0,0,0-.29-.74,1.13,1.13,0,0,0-.84-.29Z"/><path class="cls-2" d="M188.33,268.47V271h-1v-2.53l-2.17-3.75h1.12l1.55,2.74,1.56-2.74h1.12Z"/><path class="cls-2" d="M198.4,264.62a2.25,2.25,0,0,1,1.22.32,2.3,2.3,0,0,1,.81.8l-.71.54a1.81,1.81,0,0,0-.58-.56,1.44,1.44,0,0,0-.74-.2,1.17,1.17,0,0,0-.67.19.72.72,0,0,0-.21.88.66.66,0,0,0,.18.23.91.91,0,0,0,.27.18l.35.18.71.32c.23.11.44.22.64.34a2.07,2.07,0,0,1,.47.4,1.57,1.57,0,0,1,.3.47,1.5,1.5,0,0,1,.1.58,1.65,1.65,0,0,1-.16.75,1.59,1.59,0,0,1-.45.57,2.07,2.07,0,0,1-.67.37,2.78,2.78,0,0,1-.83.12,2.7,2.7,0,0,1-1.4-.36,2.74,2.74,0,0,1-1-1l.71-.54a3.57,3.57,0,0,0,.3.38,2.24,2.24,0,0,0,.37.32,1.65,1.65,0,0,0,.44.22,1.8,1.8,0,0,0,.54.08,1.27,1.27,0,0,0,.78-.23.77.77,0,0,0,.3-.64.79.79,0,0,0-.06-.32.92.92,0,0,0-.19-.25,2.08,2.08,0,0,0-.29-.19l-.38-.19-.69-.32q-.31-.15-.57-.3a2.23,2.23,0,0,1-.47-.38,1.53,1.53,0,0,1-.43-1.06,1.47,1.47,0,0,1,.16-.7,1.61,1.61,0,0,1,.43-.54,1.79,1.79,0,0,1,.62-.34A2.43,2.43,0,0,1,198.4,264.62Z"/><path class="cls-2" d="M208.33,271h-1v-2.87h-3.15V271h-1v-6.28h1v2.5h3.15v-2.5h1Z"/><path class="cls-2" d="M216.54,271h-1.08L215,270h-2.83l-.44,1.05h-1.08l2.77-6.38h.34Zm-4-1.91h2.09l-1-2.6Z"/><path class="cls-2" d="M221.16,264.72a2.75,2.75,0,0,1,.88.14,1.94,1.94,0,0,1,.67.39,1.74,1.74,0,0,1,.43.61,1.85,1.85,0,0,1,.16.78,1.83,1.83,0,0,1-.33,1.09,1.8,1.8,0,0,1-.89.68L224,271h-1.15l-1.8-2.43h-1.14V271h-1v-6.28Zm-1.28.9v2.06h1.26a1.13,1.13,0,0,0,.83-.29,1,1,0,0,0,.29-.74,1,1,0,0,0-.29-.74,1.09,1.09,0,0,0-.83-.29Z"/><path class="cls-2" d="M230.33,265.62h-3.12v1.61h2.34v.88h-2.34v2h3.23v.9H226.2v-6.28h4.13Z"/><path class="cls-2" d="M234.9,264.72a4.17,4.17,0,0,1,1.41.23,3,3,0,0,1,1.08.64,2.85,2.85,0,0,1,.69,1,3.1,3.1,0,0,1,.25,1.27,3,3,0,0,1-.25,1.26,2.8,2.8,0,0,1-.69,1,3.07,3.07,0,0,1-1.08.66,4.17,4.17,0,0,1-1.41.23h-2v-6.28Zm-1,.91v4.47h.94a2.87,2.87,0,0,0,1-.17,2,2,0,0,0,.75-.47,1.92,1.92,0,0,0,.47-.71,2.44,2.44,0,0,0,.17-.9,2.38,2.38,0,0,0-.17-.91,1.88,1.88,0,0,0-.47-.7,2,2,0,0,0-.75-.45,3.13,3.13,0,0,0-1-.16Z"/><path class="cls-2" d="M247.76,264.62a3.44,3.44,0,0,1,1.29.24,3.26,3.26,0,0,1,1,.69,3.11,3.11,0,0,1,.71,1,3.05,3.05,0,0,1,.26,1.28,3.19,3.19,0,0,1-1,2.32,3.23,3.23,0,0,1-1,.68,3.44,3.44,0,0,1-1.29.24,3.52,3.52,0,0,1-1.29-.24,3.26,3.26,0,0,1-1-.69,3.08,3.08,0,0,1-.7-1,3.28,3.28,0,0,1,0-2.56,3.08,3.08,0,0,1,.7-1,3.25,3.25,0,0,1,2.33-.93Zm0,.92a2.18,2.18,0,0,0-.89.18,2,2,0,0,0-.72.48,2,2,0,0,0-.47.73,2.6,2.6,0,0,0,0,1.85,2.18,2.18,0,0,0,.47.74,2.14,2.14,0,0,0,.72.49,2.35,2.35,0,0,0,.89.17,2.4,2.4,0,0,0,.9-.17,2.2,2.2,0,0,0,.71-.49,2.36,2.36,0,0,0,.48-.74,2.6,2.6,0,0,0,0-1.85,2.44,2.44,0,0,0-.48-.73,2,2,0,0,0-.71-.48A2.23,2.23,0,0,0,247.77,265.54Z"/><path class="cls-2" d="M259.61,269l1.57-4.24h1.11l-2.44,6.38h-.35l-1.87-4.45-1.88,4.45h-.34L253,264.72h1.11l1.56,4.25,1.82-4.35h.34Z"/><path class="cls-2" d="M268.9,269v-4.24h1v6.38h-.34l-3.83-4.34V271h-1v-6.38h.35Z"/><path class="cls-2" d="M277,265.62h-3.12v1.61h2.34v.88h-2.34v2h3.23v.9h-4.24v-6.28H277Z"/><path class="cls-2" d="M281.85,264.72a2.75,2.75,0,0,1,.88.14,1.85,1.85,0,0,1,.67.39,1.9,1.9,0,0,1,.44.61,2,2,0,0,1,.15.78,1.89,1.89,0,0,1-.32,1.09,1.87,1.87,0,0,1-.9.68l1.89,2.59h-1.15l-1.8-2.43h-1.14V271h-1v-6.28Zm-1.28.9v2.06h1.26a1.13,1.13,0,0,0,.83-.29,1,1,0,0,0,.29-.74,1,1,0,0,0-.29-.74,1.09,1.09,0,0,0-.83-.29Z"/><path class="cls-2" d="M288.74,264.62a2.19,2.19,0,0,1,1.21.32,2.3,2.3,0,0,1,.81.8l-.7.54a1.92,1.92,0,0,0-.58-.56,1.44,1.44,0,0,0-.74-.2,1.15,1.15,0,0,0-.67.19.62.62,0,0,0-.28.57.75.75,0,0,0,.06.31.8.8,0,0,0,.18.23,1.12,1.12,0,0,0,.28.18l.35.18.7.32a5.42,5.42,0,0,1,.64.34,2.13,2.13,0,0,1,.48.4,1.75,1.75,0,0,1,.29.47,1.5,1.5,0,0,1,.11.58,1.66,1.66,0,0,1-.17.75,1.46,1.46,0,0,1-.44.57,2.18,2.18,0,0,1-.67.37,2.84,2.84,0,0,1-.84.12,2.67,2.67,0,0,1-1.39-.36,2.74,2.74,0,0,1-1-1l.71-.54a3.57,3.57,0,0,0,.3.38,1.89,1.89,0,0,0,.37.32,1.65,1.65,0,0,0,.44.22,1.8,1.8,0,0,0,.54.08,1.27,1.27,0,0,0,.78-.23.77.77,0,0,0,.3-.64.66.66,0,0,0-.07-.32.76.76,0,0,0-.19-.25,1.62,1.62,0,0,0-.29-.19l-.37-.19-.7-.32-.57-.3a2.17,2.17,0,0,1-.46-.38,1.4,1.4,0,0,1-.32-.47,1.38,1.38,0,0,1-.11-.59,1.6,1.6,0,0,1,.15-.7,1.75,1.75,0,0,1,1.06-.88A2.39,2.39,0,0,1,288.74,264.62Z"/><path class="cls-2" d="M298.67,271h-1v-2.87H294.5V271h-1v-6.28h1v2.5h3.16v-2.5h1Z"/><path class="cls-2" d="M302.6,271h-1v-6.28h1Z"/><path class="cls-2" d="M307.79,264.72a2.66,2.66,0,0,1,.88.14,2,2,0,0,1,.68.39,1.88,1.88,0,0,1,.43.61,2,2,0,0,1,.15.78,1.94,1.94,0,0,1-.15.78,1.78,1.78,0,0,1-.43.61,2,2,0,0,1-.68.4,2.43,2.43,0,0,1-.88.14h-1.27V271h-1v-6.28Zm-1.27.9v2.06h1.26a1.13,1.13,0,0,0,.83-.29,1,1,0,0,0,.28-.74,1,1,0,0,0-.28-.74,1.09,1.09,0,0,0-.83-.29Z"/><path class="cls-2" d="M320.91,271h-1.09l-.44-1.05h-2.83l-.44,1.05H315l2.77-6.38h.34Zm-4-1.91H319l-1-2.6Z"/><path class="cls-2" d="M325.51,264.72a2.66,2.66,0,0,1,.88.14,1.89,1.89,0,0,1,.68.39,1.74,1.74,0,0,1,.43.61,2,2,0,0,1,.15.78,1.94,1.94,0,0,1-.15.78,1.65,1.65,0,0,1-.43.61,1.91,1.91,0,0,1-.68.4,2.43,2.43,0,0,1-.88.14h-1.27V271h-1v-6.28Zm-1.27.9v2.06h1.26a1.12,1.12,0,0,0,.83-.29,1,1,0,0,0,.29-.74,1,1,0,0,0-.29-.74,1.08,1.08,0,0,0-.83-.29Z"/><path class="cls-2" d="M334.64,271h-1.09l-.44-1.05h-2.83l-.45,1.05h-1.07l2.77-6.38h.34Zm-4-1.91h2.09l-1-2.6Z"/><path class="cls-2" d="M339.25,264.72a2.71,2.71,0,0,1,.88.14,1.85,1.85,0,0,1,.67.39,1.76,1.76,0,0,1,.44.61,2,2,0,0,1,.15.78,1.89,1.89,0,0,1-.32,1.09,1.87,1.87,0,0,1-.9.68l1.9,2.59h-1.16l-1.79-2.43H338V271h-1v-6.28Zm-1.28.9v2.06h1.26a1.13,1.13,0,0,0,.83-.29,1,1,0,0,0,.29-.74,1,1,0,0,0-.29-.74,1.09,1.09,0,0,0-.83-.29Z"/><path class="cls-2" d="M348.65,265.62h-2.11V271h-1v-5.38h-2.11v-.9h5.23Z"/><path class="cls-2" d="M356.89,271h-1v-3.94l-1.81,2.36h-.33l-1.81-2.37V271h-1v-6.38h.35l2.63,3.51,2.64-3.51h.35Z"/><path class="cls-2" d="M363.93,265.62h-3.12v1.61h2.34v.88h-2.34v2H364v.9H359.8v-6.28h4.13Z"/><path class="cls-2" d="M370.7,269v-4.24h1v6.38h-.34l-3.83-4.34V271h-1v-6.38h.35Z"/><path class="cls-2" d="M379.21,265.62H377.1V271h-1v-5.38H374v-.9h5.23Z"/><path class="cls-2" d="M383.39,264.62a2.25,2.25,0,0,1,1.22.32,2.3,2.3,0,0,1,.81.8l-.71.54a1.81,1.81,0,0,0-.58-.56,1.44,1.44,0,0,0-.74-.2,1.17,1.17,0,0,0-.67.19.72.72,0,0,0-.21.88.66.66,0,0,0,.18.23.91.91,0,0,0,.27.18l.35.18.71.32c.23.11.44.22.64.34a2.07,2.07,0,0,1,.47.4,1.57,1.57,0,0,1,.3.47,1.5,1.5,0,0,1,.1.58,1.65,1.65,0,0,1-.16.75,1.59,1.59,0,0,1-.45.57,2.07,2.07,0,0,1-.67.37,2.78,2.78,0,0,1-.83.12,2.7,2.7,0,0,1-1.4-.36,2.82,2.82,0,0,1-1-1l.71-.54a3.57,3.57,0,0,0,.3.38,2.24,2.24,0,0,0,.37.32,1.65,1.65,0,0,0,.44.22,1.8,1.8,0,0,0,.54.08,1.27,1.27,0,0,0,.78-.23.77.77,0,0,0,.3-.64.79.79,0,0,0-.06-.32.92.92,0,0,0-.19-.25,2.08,2.08,0,0,0-.29-.19l-.38-.19-.69-.32q-.31-.15-.57-.3a2.23,2.23,0,0,1-.47-.38,1.53,1.53,0,0,1-.43-1.06,1.47,1.47,0,0,1,.16-.7,1.61,1.61,0,0,1,.43-.54,1.79,1.79,0,0,1,.62-.34A2.43,2.43,0,0,1,383.39,264.62Z"/><path class="cls-2" d="M128.22,286.63v-3.47H129v5.22h-.28l-3.13-3.56v3.47h-.82v-5.22h.28Z"/><path class="cls-2" d="M134.8,283.9h-2.55v1.31h1.91v.72h-1.91v1.63h2.65v.73h-3.48v-5.13h3.38Z"/><path class="cls-2" d="M142,286.63l1.29-3.47h.91l-2,5.22h-.28l-1.54-3.64-1.53,3.64h-.28l-2-5.22h.91l1.28,3.48,1.48-3.57h.28Z"/><path class="cls-2" d="M154,288.29h-.83v-3.22L151.65,287h-.27l-1.48-1.94v3.23h-.82v-5.22h.28l2.15,2.87,2.17-2.87H154Z"/><path class="cls-2" d="M160.67,288.29h-.88l-.37-.85h-2.31l-.37.85h-.88l2.27-5.22h.28Zm-3.26-1.56h1.71l-.85-2.12Z"/><path class="cls-2" d="M163.4,287.56h2.35v.73h-3.18v-5.13h.83Z"/><path class="cls-2" d="M169.28,283.16a3.47,3.47,0,0,1,1.15.18,2.49,2.49,0,0,1,.88.53,2.3,2.3,0,0,1,.57.81,2.78,2.78,0,0,1,0,2.07,2.33,2.33,0,0,1-.57.82,2.36,2.36,0,0,1-.88.53,3.23,3.23,0,0,1-1.15.19h-1.61v-5.13Zm-.78.75v3.65h.77a2.29,2.29,0,0,0,.81-.14,1.75,1.75,0,0,0,.62-.38,1.66,1.66,0,0,0,.38-.59,1.76,1.76,0,0,0,.14-.73,1.79,1.79,0,0,0-.14-.75,1.59,1.59,0,0,0-.38-.57,1.74,1.74,0,0,0-.62-.37,2.55,2.55,0,0,0-.81-.12Z"/><path class="cls-2" d="M177.53,283.9H175v1.31h1.92v.72H175v1.63h2.65v.73h-3.47v-5.13h3.38Z"/><path class="cls-2" d="M183.07,286.63v-3.47h.82v5.22h-.28l-3.13-3.56v3.47h-.82v-5.22h.28Z"/><path class="cls-2" d="M190.54,289.24h-.69v-7h.69Z"/><path class="cls-2" d="M197.3,288.29h-.82v-5.13h.82Zm1-2.73,2.38,2.73h-1l-2.38-2.73,2.15-2.4h1Z"/><path class="cls-2" d="M203.46,288.29h-.83v-5.13h.83Z"/><path class="cls-2" d="M209.25,286.63v-3.47h.83v5.22h-.29l-3.12-3.56v3.47h-.83v-5.22h.28Z"/><path class="cls-2" d="M214.85,283.07a2.71,2.71,0,0,1,1.22.28,2.57,2.57,0,0,1,.91.8l-.6.49a2,2,0,0,0-.65-.6,1.82,1.82,0,0,0-.88-.21,2,2,0,0,0-.75.14,1.76,1.76,0,0,0-.59.4,1.86,1.86,0,0,0-.38.6,2,2,0,0,0-.14.75,2.19,2.19,0,0,0,.14.77,2.27,2.27,0,0,0,.39.61,1.91,1.91,0,0,0,.6.4,2.1,2.1,0,0,0,.76.14,1.92,1.92,0,0,0,.92-.21,1.82,1.82,0,0,0,.63-.57v-.55h-1.59v-.73h2.41V287a2.43,2.43,0,0,1-.42.55,2.33,2.33,0,0,1-.55.43,2.48,2.48,0,0,1-.67.27,2.68,2.68,0,0,1-.76.1,2.91,2.91,0,0,1-1.07-.2,2.58,2.58,0,0,1-1.42-1.41,2.59,2.59,0,0,1,0-2.09,2.76,2.76,0,0,1,.57-.85,2.79,2.79,0,0,1,.85-.56A2.91,2.91,0,0,1,214.85,283.07Z"/><path class="cls-2" d="M220.9,283.07a1.93,1.93,0,0,1,1,.26,2.08,2.08,0,0,1,.66.66l-.58.44a1.58,1.58,0,0,0-.47-.46,1.26,1.26,0,0,0-.61-.16,1,1,0,0,0-.54.15.52.52,0,0,0-.24.47.53.53,0,0,0,.06.26.43.43,0,0,0,.15.18.71.71,0,0,0,.22.15l.29.15.58.26a5,5,0,0,1,.52.28,2.57,2.57,0,0,1,.39.32,1.58,1.58,0,0,1,.24.39,1.4,1.4,0,0,1,.08.47,1.38,1.38,0,0,1-.13.62,1.31,1.31,0,0,1-.37.47,1.57,1.57,0,0,1-.54.3,2.21,2.21,0,0,1-2.62-1l.58-.45a1.48,1.48,0,0,0,.25.31,1.93,1.93,0,0,0,.3.27,1.3,1.3,0,0,0,.8.24,1,1,0,0,0,.64-.19.64.64,0,0,0,.24-.53.51.51,0,0,0-.21-.45,1,1,0,0,0-.23-.16l-.31-.16-.57-.26a5.19,5.19,0,0,1-.47-.25,2.28,2.28,0,0,1-.38-.3,1.36,1.36,0,0,1-.25-.39,1.06,1.06,0,0,1-.1-.48,1.34,1.34,0,0,1,.13-.58,1.36,1.36,0,0,1,.35-.44,1.53,1.53,0,0,1,.52-.28A1.79,1.79,0,0,1,220.9,283.07Z"/><path class="cls-2" d="M228.54,283.9h-1.72v4.39H226V283.9h-1.73v-.74h4.28Z"/><path class="cls-2" d="M232.61,283.07a2.84,2.84,0,0,1,1,.2,2.79,2.79,0,0,1,.85.56,2.62,2.62,0,0,1,.58.85,2.62,2.62,0,0,1,0,2.1,2.38,2.38,0,0,1-.58.84,2.62,2.62,0,0,1-.85.56,2.88,2.88,0,0,1-2.11,0,2.62,2.62,0,0,1-.85-.56,2.84,2.84,0,0,1-.58-.85,2.71,2.71,0,0,1,0-2.09,2.62,2.62,0,0,1,1.44-1.41A2.77,2.77,0,0,1,232.61,283.07Zm0,.76a2,2,0,0,0-.74.14,1.85,1.85,0,0,0-.58.39,1.73,1.73,0,0,0-.39.6,2.14,2.14,0,0,0-.14.76,2.1,2.1,0,0,0,.14.76,1.64,1.64,0,0,0,.39.6,1.59,1.59,0,0,0,.58.4,1.88,1.88,0,0,0,1.47,0,1.77,1.77,0,0,0,.58-.4,1.64,1.64,0,0,0,.39-.6,2.1,2.1,0,0,0,.14-.76,2,2,0,0,0-.14-.75,1.73,1.73,0,0,0-.39-.6,1.94,1.94,0,0,0-.58-.4A2,2,0,0,0,232.62,283.83Z"/><path class="cls-2" d="M240.8,286.63v-3.47h.82v5.22h-.28l-3.13-3.56v3.47h-.82v-5.22h.28Z"/><path class="cls-2" d="M245.65,286.17h-1.91v-.69h1.91Z"/><path class="cls-2" d="M251.93,286.22a2.38,2.38,0,0,1-.16.91,1.78,1.78,0,0,1-.44.68,1.88,1.88,0,0,1-.67.43,2.59,2.59,0,0,1-1.68,0,1.85,1.85,0,0,1-1.1-1.11,2.38,2.38,0,0,1-.17-.91v-3.06h.83v3.11a1.57,1.57,0,0,0,.1.6,1,1,0,0,0,.27.42,1.22,1.22,0,0,0,.41.25,1.35,1.35,0,0,0,.5.09,1.44,1.44,0,0,0,.51-.09,1.18,1.18,0,0,0,.4-.25,1.15,1.15,0,0,0,.28-.42,1.79,1.79,0,0,0,.1-.6v-3.11h.82Z"/><path class="cls-2" d="M256.12,283.16a2.36,2.36,0,0,1,.72.11,1.56,1.56,0,0,1,.55.32,1.49,1.49,0,0,1,.36.5,1.77,1.77,0,0,1,0,1.28,1.49,1.49,0,0,1-.36.5,1.43,1.43,0,0,1-.55.32,2.09,2.09,0,0,1-.72.12h-1v2h-.83v-5.13Zm-1,.73v1.69h1a.91.91,0,0,0,.68-.24.78.78,0,0,0,.23-.6.81.81,0,0,0-.23-.61.91.91,0,0,0-.68-.24Z"/><path class="cls-2" d="M262.26,283.07a2.77,2.77,0,0,1,1.05.2,2.84,2.84,0,0,1,.86.56,2.79,2.79,0,0,1,.58.85,2.73,2.73,0,0,1,0,2.1,2.52,2.52,0,0,1-.58.84,2.67,2.67,0,0,1-.86.56,2.77,2.77,0,0,1-1.05.2,2.84,2.84,0,0,1-1.05-.2,2.56,2.56,0,0,1-1.43-1.41,2.71,2.71,0,0,1,0-2.09,2.62,2.62,0,0,1,.58-.85,2.79,2.79,0,0,1,.85-.56A2.84,2.84,0,0,1,262.26,283.07Zm0,.76a1.94,1.94,0,0,0-.73.14,2,2,0,0,0-.59.39,1.86,1.86,0,0,0-.38.6,1.94,1.94,0,0,0-.14.76,1.9,1.9,0,0,0,.14.76,1.76,1.76,0,0,0,.38.6,1.71,1.71,0,0,0,.59.4,1.77,1.77,0,0,0,.73.15,1.73,1.73,0,0,0,.73-.15,1.81,1.81,0,0,0,.59-.4,1.76,1.76,0,0,0,.38-.6,1.91,1.91,0,0,0,.15-.76,2,2,0,0,0-.53-1.35,2,2,0,0,0-.59-.4A1.9,1.9,0,0,0,262.27,283.83Z"/><path class="cls-2" d="M270.45,286.63v-3.47h.83v5.22H271l-3.12-3.56v3.47H267v-5.22h.28Z"/><path class="cls-2" d="M275.31,286.17h-1.92v-.69h1.92Z"/><path class="cls-2" d="M280.87,283.9h-1.73v4.39h-.83V283.9h-1.73v-.74h4.29Z"/><path class="cls-2" d="M287,288.29h-.83v-2.35h-2.58v2.35h-.83v-5.13h.83v2h2.58v-2H287Z"/><path class="cls-2" d="M293.68,288.29h-.88l-.37-.85h-2.31l-.37.85h-.88l2.27-5.22h.28Zm-3.27-1.56h1.72l-.85-2.12Z"/><path class="cls-2" d="M300.46,288.29h-.82v-3.22L298.16,287h-.27l-1.48-1.94v3.23h-.83v-5.22h.28l2.16,2.87,2.16-2.87h.28Z"/><path class="cls-2" d="M306.22,283.9h-2.55v1.31h1.91v.72h-1.91v1.63h2.65v.73h-3.47v-5.13h3.37Z"/><path class="cls-2" d="M309.9,283.07a1.87,1.87,0,0,1,1.66.92l-.57.44a1.74,1.74,0,0,0-.48-.46,1.23,1.23,0,0,0-.61-.16,1,1,0,0,0-.54.15.51.51,0,0,0-.23.47.53.53,0,0,0,.05.26.65.65,0,0,0,.15.18.86.86,0,0,0,.22.15l.29.15.58.26a5,5,0,0,1,.52.28,2.15,2.15,0,0,1,.39.32,1.58,1.58,0,0,1,.24.39,1.19,1.19,0,0,1,.09.47,1.38,1.38,0,0,1-.14.62,1.29,1.29,0,0,1-.36.47,1.72,1.72,0,0,1-.55.3,2.15,2.15,0,0,1-.68.1,2.22,2.22,0,0,1-1.15-.3,2.27,2.27,0,0,1-.79-.81l.58-.45a2.6,2.6,0,0,0,.25.31,1.93,1.93,0,0,0,.3.27,2,2,0,0,0,.36.18,1.51,1.51,0,0,0,.44.06,1,1,0,0,0,.64-.19.65.65,0,0,0,.25-.53.58.58,0,0,0-.06-.26.55.55,0,0,0-.15-.19,1.43,1.43,0,0,0-.24-.16l-.31-.16-.57-.26a5,5,0,0,1-.46-.25,2,2,0,0,1-.39-.3,1.62,1.62,0,0,1-.25-.39,1.21,1.21,0,0,1-.09-.48,1.34,1.34,0,0,1,.12-.58,1.51,1.51,0,0,1,.35-.44,1.53,1.53,0,0,1,.52-.28A1.79,1.79,0,0,1,309.9,283.07Z"/><path class="cls-2" d="M318.05,289.24h-.69v-7h.69Z"/><path class="cls-2" d="M324.82,287.56h2.35v.73H324v-5.13h.83Z"/><path class="cls-2" d="M331.36,283.07a2.84,2.84,0,0,1,1.05.2,2.92,2.92,0,0,1,.85.56,2.64,2.64,0,0,1,.58,2.95,2.38,2.38,0,0,1-.58.84,2.73,2.73,0,0,1-.85.56,2.88,2.88,0,0,1-2.11,0,2.62,2.62,0,0,1-.85-.56,2.52,2.52,0,0,1-.58-.85,2.71,2.71,0,0,1,0-2.09,2.79,2.79,0,0,1,.58-.85,2.92,2.92,0,0,1,.85-.56A2.86,2.86,0,0,1,331.36,283.07Zm0,.76a1.94,1.94,0,0,0-.73.14,2,2,0,0,0-.59.39,1.86,1.86,0,0,0-.38.6,1.94,1.94,0,0,0-.14.76,1.9,1.9,0,0,0,.14.76,1.76,1.76,0,0,0,.38.6,1.71,1.71,0,0,0,.59.4,1.77,1.77,0,0,0,.73.15,1.81,1.81,0,0,0,.74-.15,1.77,1.77,0,0,0,.58-.4,1.94,1.94,0,0,0,.39-.6,2.1,2.1,0,0,0,.14-.76,2,2,0,0,0-.14-.75,2.07,2.07,0,0,0-.39-.6,1.94,1.94,0,0,0-.58-.4A2,2,0,0,0,331.36,283.83Z"/><path class="cls-2" d="M339.54,286.63v-3.47h.83v5.22h-.28L337,284.82v3.47h-.83v-5.22h.28Z"/><path class="cls-2" d="M344.35,283.16a3.53,3.53,0,0,1,1.16.18,2.59,2.59,0,0,1,.88.53,2.43,2.43,0,0,1,.57.81,2.78,2.78,0,0,1,0,2.07,2.47,2.47,0,0,1-.57.82,2.44,2.44,0,0,1-.88.53,3.28,3.28,0,0,1-1.16.19h-1.6v-5.13Zm-.78.75v3.65h.78a2.29,2.29,0,0,0,.81-.14,1.75,1.75,0,0,0,.62-.38,1.81,1.81,0,0,0,.38-.59,1.94,1.94,0,0,0,.14-.73,2,2,0,0,0-.14-.75,1.6,1.6,0,0,0-1-.94,2.55,2.55,0,0,0-.81-.12Z"/><path class="cls-2" d="M351.61,283.07a2.84,2.84,0,0,1,1.05.2,2.92,2.92,0,0,1,.85.56,2.62,2.62,0,0,1,.58.85,2.62,2.62,0,0,1,0,2.1,2.38,2.38,0,0,1-.58.84,2.73,2.73,0,0,1-.85.56,2.88,2.88,0,0,1-2.11,0,2.62,2.62,0,0,1-.85-.56,2.67,2.67,0,0,1-.58-.85,2.71,2.71,0,0,1,0-2.09,2.79,2.79,0,0,1,.58-.85,2.84,2.84,0,0,1,.86-.56A2.77,2.77,0,0,1,351.61,283.07Zm0,.76a2,2,0,0,0-.74.14,2,2,0,0,0-.59.39,1.86,1.86,0,0,0-.38.6,2.14,2.14,0,0,0-.14.76,2.1,2.1,0,0,0,.14.76,1.76,1.76,0,0,0,.38.6,1.71,1.71,0,0,0,.59.4,1.88,1.88,0,0,0,1.47,0,1.77,1.77,0,0,0,.58-.4,1.64,1.64,0,0,0,.39-.6,2.1,2.1,0,0,0,.14-.76,2,2,0,0,0-.14-.75,1.73,1.73,0,0,0-.39-.6,1.94,1.94,0,0,0-.58-.4A2,2,0,0,0,351.62,283.83Z"/><path class="cls-2" d="M359.79,286.63v-3.47h.83v5.22h-.28l-3.13-3.56v3.47h-.82v-5.22h.28Z"/><path class="cls-2" d="M117.86,156.28l1.69,4-2.58,6h5.19l1.23,2.8h-7.62l-1.44,3.38h-3.47Zm.77-1.81,1.17-2.61h1.1l8.94,20.61h-3.5Z"/><path class="cls-2" d="M139.8,168.14h-3.26V152.2h3.26Zm9.27,4.33H136.54v-2.92h12.53Z"/><path class="cls-2" d="M171.44,166.57a5.5,5.5,0,0,1-1.82,4.24,6.73,6.73,0,0,1-4.76,1.66h-8.69V152.2h7.1a6.3,6.3,0,0,1,4.39,1.53,5.07,5.07,0,0,1,1.69,3.93,5.33,5.33,0,0,1-1.69,4,6.08,6.08,0,0,1-4.39,1.61h-2.49v-2.79h2.27a3.11,3.11,0,0,0,2.24-.77,2.62,2.62,0,0,0,.8-2,2.58,2.58,0,0,0-.78-2,3.19,3.19,0,0,0-2.26-.74h-3.68v14.56h5.28a3.63,3.63,0,0,0,2.58-.86,3,3,0,0,0,.92-2.3,3.32,3.32,0,0,0-1.07-2.43l2.18-1.87A5.13,5.13,0,0,1,171.44,166.57Z"/><path class="cls-2" d="M183.79,156.28l1.69,4-2.58,6h5.19l1.23,2.8H181.7l-1.45,3.38h-3.47Zm.76-1.81,1.17-2.61h1.11l8.94,20.61h-3.5Z"/><path class="cls-2" d="M202.8,155.17v-3.31h1.14l15.57,17.6v3.35h-1.1Zm0,2.19,3.26,3.59v11.52H202.8Zm13.46,6.35V152.2h3.25v15.05Z"/><path class="cls-2" d="M236.72,163.59v8.88h-3.26v-8.2l-7-12.07h3.62Zm.86-1.26-1.72-3,4.27-7.12h3.59Z"/><path class="cls-2" d="M265.38,172.47h-3.26V152.2h3.26Zm13.45,0h-3.25v-9.28h-8.79v-2.92h8.79V152.2h3.25Z"/><path class="cls-2" d="M289.59,162.18a7.61,7.61,0,0,0,2.07,5.48,6.93,6.93,0,0,0,5.21,2.17,7.91,7.91,0,0,0,3.28-.69,8,8,0,0,0,2.58-1.8V171a9.57,9.57,0,0,1-5.86,1.85,10.48,10.48,0,0,1-7.56-3,10.06,10.06,0,0,1-3.1-7.53,9.73,9.73,0,0,1,.9-4.19,8.89,8.89,0,0,1,2.48-3.18Zm14.8-7.31a10,10,0,0,1,3.1,7.52,9.77,9.77,0,0,1-.89,4.2,8.74,8.74,0,0,1-2.42,3.17v-7.27a7.6,7.6,0,0,0-2.09-5.49,7,7,0,0,0-5.22-2.16,7.77,7.77,0,0,0-5.87,2.49V153.7a9.36,9.36,0,0,1,5.84-1.84A10.44,10.44,0,0,1,304.39,154.87Z"/><path class="cls-2" d="M317,170.49a8.43,8.43,0,0,1-2.31-6.22V152.2h3.26v12.28a5.38,5.38,0,0,0,1.38,3.93,5,5,0,0,0,3.75,1.42,7.18,7.18,0,0,0,3.59-1V172a7.76,7.76,0,0,1-3.62.8A8.16,8.16,0,0,1,317,170.49Zm11.09-18.29h3.25v12.07q0,4.66-3.25,6.85Z"/><path class="cls-2" d="M341.59,171.64a8.53,8.53,0,0,1-3.16-3.23l2.3-1.75q2.25,3.22,5.32,3.23a6.45,6.45,0,0,0,2.09-.34v3a7.88,7.88,0,0,1-2,.28A8.8,8.8,0,0,1,341.59,171.64Zm8-4.18a2.73,2.73,0,0,0-.69-2,8.46,8.46,0,0,0-2.29-1.41l-2.24-1a11.21,11.21,0,0,1-3.5-2.34,4.52,4.52,0,0,1-1.23-3.25,4.84,4.84,0,0,1,.9-2.91,5.5,5.5,0,0,1,2.41-1.85v4.23a3.41,3.41,0,0,0,.19,1.17,2.17,2.17,0,0,0,.64.89,4.79,4.79,0,0,0,.83.6l1.17.6,2.27,1a11.39,11.39,0,0,1,3.66,2.46,4.75,4.75,0,0,1,1.2,3.32,5.24,5.24,0,0,1-.89,3,5.7,5.7,0,0,1-2.43,2ZM346,154.78a5.29,5.29,0,0,0-1.66.27v-3a6.6,6.6,0,0,1,1.72-.24,7.38,7.38,0,0,1,6.48,3.62l-2.27,1.75A4.88,4.88,0,0,0,346,154.78Z"/><path class="cls-2" d="M360.52,152.2h13.33v2.91H363.77v14.44h10.45v2.92h-13.7Zm4.67,8.13h6.17v2.77h-6.17Z"/><path class="cls-2" d="M159.14,195.74v-6.85h1.62v10.3h-.55l-6.17-7V199h-1.63v-10.3H153Z"/><path class="cls-2" d="M173.68,190.34h-5v2.6h3.78v1.41h-3.78v3.21h5.23V199H167V188.89h6.66Z"/><path class="cls-2" d="M189.44,195.74l2.53-6.85h1.8l-4,10.3h-.55l-3-7.19-3,7.19h-.55l-3.95-10.3h1.8l2.52,6.86,2.93-7h.55Z"/><path class="cls-2" d="M216.89,199h-1.63v-6.36l-2.92,3.81h-.54l-2.91-3.82V199h-1.63v-10.3h.55l4.26,5.66,4.27-5.66h.55Z"/><path class="cls-2" d="M231.68,199h-1.75l-.72-1.69h-4.56l-.73,1.69h-1.73l4.47-10.3h.55Zm-6.45-3.08h3.38l-1.68-4.2Z"/><path class="cls-2" d="M238.61,197.56h4.64V199H237V188.89h1.63Z"/><path class="cls-2" d="M251.74,188.89a6.82,6.82,0,0,1,2.28.36,5.2,5.2,0,0,1,1.74,1,4.5,4.5,0,0,1,1.12,1.6,5.24,5.24,0,0,1,.39,2.05,5.14,5.14,0,0,1-.39,2,4.67,4.67,0,0,1-1.12,1.62,5.08,5.08,0,0,1-1.74,1.06,6.57,6.57,0,0,1-2.28.37h-3.16V188.89Zm-1.54,1.47v7.2h1.52a4.83,4.83,0,0,0,1.62-.26,3.33,3.33,0,0,0,1.21-.76,3.25,3.25,0,0,0,.76-1.15,3.82,3.82,0,0,0,.27-1.45,3.94,3.94,0,0,0-.27-1.48,3.13,3.13,0,0,0-.76-1.12,3.27,3.27,0,0,0-1.21-.73,4.83,4.83,0,0,0-1.62-.25Z"/><path class="cls-2" d="M269.56,190.34h-5v2.6h3.78v1.41h-3.78v3.21h5.22V199h-6.85V188.89h6.67Z"/><path class="cls-2" d="M282,195.74v-6.85h1.63v10.3h-.55l-6.17-7V199h-1.63v-10.3h.55Z"/><path class="cls-2" d="M299.54,199h-1.63V188.89h1.63Zm2.07-5.39L306.3,199h-2l-4.7-5.39,4.25-4.74h2Z"/><path class="cls-2" d="M319,190.34h-3.41V199H314v-8.68h-3.41v-1.45H319Z"/><path class="cls-2" d="M330.35,189.33l-2.47,3.3a3.93,3.93,0,0,1,1,.34,3.57,3.57,0,0,1,.86.64,3,3,0,0,1,.62.94,3.17,3.17,0,0,1,.23,1.23,3.23,3.23,0,0,1-.3,1.4,3.28,3.28,0,0,1-.79,1.08,4,4,0,0,1-1.19.69,4.21,4.21,0,0,1-1.43.24,3.81,3.81,0,0,1-1.19-.17,3.76,3.76,0,0,1-1-.47,4,4,0,0,1-.79-.69,4.87,4.87,0,0,1-.59-.86l1.15-.8a4.25,4.25,0,0,0,1,1.06,2.52,2.52,0,0,0,2.25.3,1.94,1.94,0,0,0,.66-.38,1.54,1.54,0,0,0,.43-.6,1.84,1.84,0,0,0,.16-.8,1.6,1.6,0,0,0-.6-1.33,2.8,2.8,0,0,0-1.74-.46h-1.13v-.43l2.39-3.22H324v-1.45h6.31Z"/><path class="cls-2" d="M396.31,225.54H88.64V116.1H396.31Zm-305.67-2H394.31V118.1H90.64Z"/><path class="cls-2" d="M485,341.64H0V0H485Zm-483-2H483V2H2Z"/></g></g></svg>