<svg xmlns="http://www.w3.org/2000/svg" viewBox="0 0 90.19 36.23"><defs><style>.cls-1{fill:#0a456b;}</style></defs><title>Asset 2</title><g id="Layer_2" data-name="Layer 2"><g id="Layer_1-2" data-name="Layer 1"><path class="cls-1" d="M64.07,30.79H25.64a1.25,1.25,0,0,1,0-2.5H64.07a1.25,1.25,0,0,1,0,2.5Z"/><path class="cls-1" d="M87.17,30.79H79.78a1.25,1.25,0,0,1,0-2.5h7.27c.73-.8.87-5.27.2-6.86a1.21,1.21,0,0,1-.08-.68,5.83,5.83,0,0,0-.82-3.12h0S84,14.69,70,13a12.27,12.27,0,0,1-3.84-2A53,53,0,0,0,49.58,3.66c-6.48-1.59-17.16-1.57-22.41,0A27.44,27.44,0,0,0,18.42,8a18.05,18.05,0,0,1-6.64,3.25l-1,.23a34.36,34.36,0,0,0-4.49,1.28c-1.86.73-2.48,1.24-2.55,2.14a23.43,23.43,0,0,1-.9,5.37,6.35,6.35,0,0,0-.34,2.06c0,1.56,0,3,0,4.15a1.89,1.89,0,0,0,1.88,1.79H9.77a1.25,1.25,0,1,1,0,2.5H4.44A4.38,4.38,0,0,1,.06,26.63C0,25.45,0,23.91,0,22.29a8.93,8.93,0,0,1,.44-2.71,21.08,21.08,0,0,0,.81-4.86C1.49,12,4,11,5.41,10.45a36.74,36.74,0,0,1,4.82-1.38l.95-.23A15.58,15.58,0,0,0,17,6,29.79,29.79,0,0,1,26.44,1.3C32-.41,43.34-.44,50.17,1.23A55.21,55.21,0,0,1,67.46,8.89a14.74,14.74,0,0,0,2.87,1.6c15.26,1.88,17.84,5.26,18.2,5.91a8.58,8.58,0,0,1,1.15,4.38c.72,2.17.8,6.86-.52,8.85A2.35,2.35,0,0,1,87.17,30.79Z"/><path class="cls-1" d="M17.79,36.23a8.61,8.61,0,1,1,8.61-8.61A8.62,8.62,0,0,1,17.79,36.23Zm0-14.71a6.11,6.11,0,1,0,6.11,6.1A6.11,6.11,0,0,0,17.79,21.52Z"/><path class="cls-1" d="M72.42,36.23A8.61,8.61,0,1,1,81,27.62,8.62,8.62,0,0,1,72.42,36.23Zm0-14.71a6.11,6.11,0,1,0,6.11,6.1A6.11,6.11,0,0,0,72.42,21.52Z"/><path class="cls-1" d="M88.4,22.19h-.15A18.17,18.17,0,0,1,83,21c-1.33-.63-3-4.11-2.15-6,.29-.68,1.28-2.13,4.27-1a1.25,1.25,0,1,1-.87,2.35,3,3,0,0,0-1.12-.26,5,5,0,0,0,1,2.75,17.71,17.71,0,0,0,4.39.9,1.25,1.25,0,0,1-.16,2.49Z"/><path class="cls-1" d="M3.48,21c-.45,0-.92,0-1.43,0a1.25,1.25,0,1,1,.11-2.49c2.55.11,4-.13,4.23-.32a5.81,5.81,0,0,0,.32-2.52c-.83-.41-2.53-1.12-3-1.25a1.25,1.25,0,0,1-1-1.27A1.27,1.27,0,0,1,4,11.89c.17,0,.49,0,2.54.91s2.59,1.17,2.64,2c.23,4.32-1,5.13-1.44,5.4A8.64,8.64,0,0,1,3.48,21Z"/><path class="cls-1" d="M62.32,13.65h-.06L42,13a1.5,1.5,0,0,1-1.43-1.3L39.18,1.85a1.25,1.25,0,1,1,2.47-.35l1.3,9,18.4.59a33.66,33.66,0,0,0-1.77-3.51,1.25,1.25,0,0,1,1.52-2c1,.64,3,5.45,3,5.49a1.89,1.89,0,0,1-.24,1.75A1.86,1.86,0,0,1,62.32,13.65ZM43.07,11.34v0ZM59.73,7.72Z"/><path class="cls-1" d="M42.07,13h0L22.8,12.4a1.27,1.27,0,0,1-1.12-.77c-.29-.68-.32-.75,2.35-5.18.56-.92,2.38-3.93,2.65-4.22a1.25,1.25,0,0,1,1.89,1.63c-.39.56-2.5,4-3.71,6.1l17.25.55a1.25,1.25,0,0,1,0,2.5Z"/></g></g></svg>