<svg xmlns="http://www.w3.org/2000/svg" viewBox="0 0 68.17 56.65"><defs><style>.cls-1{fill:#fff;}</style></defs><title>bed icon</title><g id="Layer_2" data-name="Layer 2"><g id="Layer_1-2" data-name="Layer 1"><g id="jROnFX.tif"><path class="cls-1" d="M34.09,0H61a3.57,3.57,0,0,1,.57,0A1.69,1.69,0,0,1,63,1.68V2q0,9,0,18.05a.87.87,0,0,0,.32.72A14.19,14.19,0,0,1,68,29.36a15,15,0,0,1,.17,2.32V55.62a1.44,1.44,0,0,1-.06.47.8.8,0,0,1-.73.55H60.55a.86.86,0,0,1-.87-.83c0-.1,0-.2,0-.3V47.81a2.55,2.55,0,0,0,0-.39.86.86,0,0,0-.8-.77H9.35a.9.9,0,0,0-.85.83v8.1c0,.11,0,.23,0,.34a.84.84,0,0,1-.74.72H.88A.85.85,0,0,1,0,55.83a2.62,2.62,0,0,1,0-.28c0-8,0-15.94,0-23.91a14.11,14.11,0,0,1,3.35-9.29A18.69,18.69,0,0,1,5,20.73a.68.68,0,0,0,.23-.55c0-4.62,0-16.94,0-18.47A1.68,1.68,0,0,1,6.29.12,2.64,2.64,0,0,1,6.85,0a3.09,3.09,0,0,1,.43,0Zm0,30.23H60.6a2.91,2.91,0,0,0,.77-.1,2.32,2.32,0,0,0,1.36-3.34A9.9,9.9,0,0,0,60.56,24a10.18,10.18,0,0,0-7-2.63h-39c-.36,0-.73,0-1.09,0a10.17,10.17,0,0,0-8.07,5.34,2.34,2.34,0,0,0,2.13,3.46ZM22.68,17.08a62.5,62.5,0,0,0,8-.52,1.4,1.4,0,0,0,.59-.18,1.3,1.3,0,0,0,.43-.66,11.77,11.77,0,0,0,0-8.25,1.36,1.36,0,0,0-.45-.67,1.44,1.44,0,0,0-.59-.17,72.45,72.45,0,0,0-15.3-.15,2,2,0,0,0-1.26.42,1.79,1.79,0,0,0-.4.83,12.6,12.6,0,0,0,.13,8.07,1.3,1.3,0,0,0,.35.56,1.32,1.32,0,0,0,.7.22A60.16,60.16,0,0,0,22.68,17.08Zm23.29,0a65.34,65.34,0,0,0,7.52-.5.79.79,0,0,0,.85-.65,12.86,12.86,0,0,0,.08-8.42,1.58,1.58,0,0,0-.36-.69,1.68,1.68,0,0,0-1-.32,75.42,75.42,0,0,0-15.32.09,1.7,1.7,0,0,0-.74.2c-.84.51-.95,2.16-1.09,3a12.39,12.39,0,0,0,.66,6,1.31,1.31,0,0,0,.28.52,1.27,1.27,0,0,0,.71.25A59.67,59.67,0,0,0,46,17.07Z"/></g></g></g></svg>