<svg xmlns="http://www.w3.org/2000/svg" viewBox="0 0 94.11 36.22"><defs><style>.cls-1{fill:#0a456b;}</style></defs><title>train icon blue</title><g id="Layer_2" data-name="Layer 2"><g id="Layer_1-2" data-name="Layer 1"><path class="cls-1" d="M76.12,34.69a5.43,5.43,0,0,1-5.42-5.43,5.24,5.24,0,0,1,.44-2.1,1.25,1.25,0,0,1,2.3,1,2.81,2.81,0,0,0-.24,1.11,2.92,2.92,0,1,0,5.84,0,2.81,2.81,0,0,0-.24-1.11,1.25,1.25,0,0,1,2.3-1,5.24,5.24,0,0,1,.44,2.1A5.43,5.43,0,0,1,76.12,34.69Z"/><path class="cls-1" d="M65.5,34.69a5.44,5.44,0,0,1-5.43-5.43,5.26,5.26,0,0,1,.45-2.1,1.25,1.25,0,0,1,2.29,1,2.81,2.81,0,0,0-.24,1.11,2.93,2.93,0,1,0,5.85,0,2.81,2.81,0,0,0-.24-1.11,1.25,1.25,0,0,1,2.3-1,5.4,5.4,0,0,1-5,7.53Z"/><path class="cls-1" d="M28.05,34.69a5.4,5.4,0,0,1-5-7.53,1.25,1.25,0,0,1,2.3,1,2.81,2.81,0,0,0-.24,1.11,2.93,2.93,0,1,0,5.85,0,2.67,2.67,0,0,0-.25-1.11,1.25,1.25,0,0,1,.66-1.64,1.24,1.24,0,0,1,1.64.65,5.26,5.26,0,0,1,.45,2.1A5.44,5.44,0,0,1,28.05,34.69Z"/><path class="cls-1" d="M19.72,34.69a5.44,5.44,0,0,1-5.43-5.43,5.26,5.26,0,0,1,.45-2.1,1.25,1.25,0,0,1,2.29,1,2.81,2.81,0,0,0-.24,1.11,2.93,2.93,0,1,0,5.85,0,2.81,2.81,0,0,0-.24-1.11,1.25,1.25,0,0,1,2.3-1,5.4,5.4,0,0,1-5,7.53Z"/><path class="cls-1" d="M57.86,32.26H35.69a1.25,1.25,0,0,1-1.2-.89l-.73-2.46H12.84a1.25,1.25,0,0,1,0-2.5H34.69a1.25,1.25,0,0,1,1.2.89l.73,2.46H56.93l.73-2.46a1.25,1.25,0,0,1,1.2-.89H84.93c2.87,0,2.9-1.3,2.91-1.86.1-5.82-15.48-21.37-33-22-1.69-.06-41.87,0-42.28,0h0a1.25,1.25,0,0,1,0-2.5C14.23,0,53.21,0,55,0,73.82.73,90.47,17.14,90.34,24.6c0,2.7-2.07,4.31-5.41,4.31H59.79l-.73,2.46A1.25,1.25,0,0,1,57.86,32.26Z"/><path class="cls-1" d="M57.67,19.2H23.4A1.25,1.25,0,0,1,22.15,18V9A1.25,1.25,0,0,1,23.4,7.75H57.67A1.25,1.25,0,0,1,58.92,9v9A1.25,1.25,0,0,1,57.67,19.2Zm-33-2.5H56.42V10.25H24.65Z"/><path class="cls-1" d="M87,20.35H79.3a8.11,8.11,0,0,1-6.19-2.86l-4.55-5.36A3.75,3.75,0,0,1,71.41,6h2.4a1.25,1.25,0,0,1,0,2.5h-2.4a1.24,1.24,0,0,0-.94,2L75,15.87a5.59,5.59,0,0,0,4.28,2H87a1.25,1.25,0,0,1,0,2.5Z"/><path class="cls-1" d="M11.17,6H6.8a1.25,1.25,0,1,1,0-2.5h4.37a1.25,1.25,0,1,1,0,2.5Z"/><path class="cls-1" d="M10.52,14.62H6.15a1.25,1.25,0,0,1,0-2.5h4.37a1.25,1.25,0,0,1,0,2.5Z"/><path class="cls-1" d="M9.71,24.92H5.34a1.25,1.25,0,0,1,0-2.5H9.71a1.25,1.25,0,0,1,0,2.5Z"/><path class="cls-1" d="M40.54,19.2A1.25,1.25,0,0,1,39.29,18V9.79a1.25,1.25,0,0,1,2.5,0V18A1.25,1.25,0,0,1,40.54,19.2Z"/><path class="cls-1" d="M92.86,36.22H1.25a1.25,1.25,0,0,1,0-2.5H92.86a1.25,1.25,0,0,1,0,2.5Z"/></g></g></svg>