<svg xmlns="http://www.w3.org/2000/svg" viewBox="0 0 446.64 133.78"><defs><style>.cls-1{fill:#fff;}</style></defs><title>wandle logo white</title><g id="Layer_2" data-name="Layer 2"><g id="Layer_1-2" data-name="Layer 1"><path class="cls-1" d="M252.94,52.2s0-.08,0-.12,0-.28,0-.42c0-.39,0-.77-.06-1.14,0-.15,0-.31,0-.46v-.22c0-.1,0-.19,0-.28,0-.3-.05-.59-.08-.88s0-.43-.06-.64,0-.2,0-.29v-.13c0-.25-.07-.49-.1-.73s0-.39-.08-.58l0-.31,0-.23c0-.15-.05-.29-.08-.43s0-.29-.08-.44l0-.18c0-.14-.06-.26-.08-.4l-.08-.39-.07-.31-.09-.38c0-.17-.08-.32-.12-.49l0-.09-.1-.41,0-.18v0l-.06-.21-.16-.52c0-.14-.08-.28-.12-.42h0l0-.06-.05-.16v0l-.09-.29,0-.15h0c-.06-.17-.11-.34-.17-.5l-.09-.23,0-.14h0l0-.09-.15-.39-.1-.25-.19-.43c-.08-.18-.16-.37-.25-.54l0-.05v0l-.22-.44-.28-.54-.09-.17-.15-.26h0l-.29-.48-.21-.33-.17-.25-.08-.12h0l-.1-.14-.29-.39-.2-.27h0l-.09-.11-.25-.32-.16-.19-.21-.25-.1-.12q-.31-.35-.63-.66l0,0-.11-.1-.21-.2-.59-.53-.18-.15-.12-.1-.56-.43-.24-.18-.24-.17-.17-.11-.09-.06-.52-.32-.43-.26-.09-.05-.18-.1-.26-.13-.65-.32-.15-.07h0l-.14-.06-.68-.28-.24-.09-.19-.07-.16-.06-.57-.2-.12,0-.41-.12-.15,0-.26-.07-.29-.08-.62-.15-.16,0-.18,0-.74-.15-.2,0-.13,0-.13,0-.67-.11-.21,0-.22,0-.18,0-.32,0-.3,0-.53-.05-.19,0-.22,0-.77-.05h-.28l-.74,0h-2.85c-.85,0-1.66,0-2.45.07h-.28l-.54,0c-.54,0-1.06.08-1.58.14l-.41,0-.42.06-1.39.22-.52.08-.24.05c-.51.1-1,.22-1.49.34l-.43.1-.07,0c-.61.16-1.19.34-1.76.54l-.16.05-.43.16c-.38.14-.75.28-1.1.43l-.3.12-.36.17-.93.45-.39.2-.23.13c-.31.17-.61.35-.91.53l-.33.19h0l-.15.09h0a23.59,23.59,0,0,0-2.79,2.1h0l-.15.14q-.5.44-1,.91h0l-.13.14-.32.33-.22.24-.14.14-.3.32q-.47.51-.91,1a9.1,9.1,0,0,0-.18-.9l0-.15c0-.09-.06-.18-.08-.27s-.09-.3-.14-.44-.08-.2-.12-.3,0-.1-.05-.15h0c-.05-.13-.11-.25-.17-.38l-.17-.33c-.06-.11-.12-.23-.18-.34h0c-1.94-3.25-6-5.34-11.3-5.34h-7.81v6.12h0v6.34h0V65.39h0V97h0v5.68h21V77.24h0V50.31c.42-.45.85-.87,1.29-1.28l.42-.36c.31-.27.63-.54,1-.79l.53-.38c.3-.22.61-.43.92-.63l.59-.36q.47-.27.95-.52l.62-.3c.33-.15.67-.29,1-.42l.63-.23c.37-.13.75-.23,1.13-.33l.55-.14h.07c.48-.11,1-.19,1.46-.25l.15,0,.32,0,.81-.07c.32,0,.64,0,1,0,.58,0,1.14,0,1.67,0l.52,0,1,.07.56.07.82.12.51.11c5.46,1.17,6.91,5,6.91,14.94v.4h0v1.59h0l-.07,15.75h0l-.05,12.5a18.44,18.44,0,0,0,.63,5.06h0v0l0,.05a12.48,12.48,0,0,0,.42,1.2c.05.13.11.24.16.36s.24.53.38.77l.21.36c.14.23.29.45.44.67l.22.3a9.28,9.28,0,0,0,.62.71l.12.13a9.28,9.28,0,0,0,.82.73l.24.18c.21.16.43.31.65.45l.32.19.64.34.34.16c.25.11.5.21.76.3l.26.1q.52.18,1.07.32l.22,0,.89.19.38.06.77.11.41,0,.81.06.36,0,1.18,0H253V94.81h0V54.47c0-.69,0-1.36,0-2C252.94,52.37,252.94,52.28,252.94,52.2Z"/><path class="cls-1" d="M94.65,28.08l-.34,0-.71.06-.39.05-.61.1-.39.08-.55.13-.38.11-.52.17-.35.13-.5.22-.31.14-.52.29-.24.14c-.24.15-.48.32-.7.49l-.12.1c-.18.15-.36.3-.53.46l-.22.23-.07.08h0l-.11.13-.18.2-.14.16-.2.25-.21.29-.12.16-.15.23-.2.31-.13.22-.12.23-.16.31-.15.3-.12.27-.1.23-.17.42-.12.3,0,.08h0c-.08.21-.15.43-.22.66l-.1.33c-.1.35-.2.7-.28,1.07l-9.7,41-2.34-9.65h0l-1.44-6L64,37.25c-.15-.59-.32-1.13-.49-1.66l-.1-.31,0-.08h0l0-.05c-.16-.45-.33-.87-.51-1.28l0-.11h0l0-.06-.09-.19c-.17-.36-.35-.7-.54-1l-.07-.12,0,0v0h0l0-.06a9.83,9.83,0,0,0-.64-.9l-.13-.17,0-.06h0l-.06-.06a8.2,8.2,0,0,0-.78-.79l-.08-.06-.17-.13a7.74,7.74,0,0,0-.74-.53l-.19-.12-.11-.07a8.32,8.32,0,0,0-1-.48l-.16-.06-.23-.08-.1,0h0l-.11,0-.55-.16-.32-.09h-.07l-.13,0-.09,0-.41-.07-.4-.07-.37,0-.27,0-.12,0h0l-.35,0h-.3l-.89,0c-3.77,0-6.32,1-8.1,3.05h0l-.22.28-.15.2q-.21.29-.41.61l-.06.09q-.23.37-.43.78l-.09.19c-.1.21-.2.43-.3.66l-.11.28q-.13.32-.25.65l-.11.31c-.08.24-.16.49-.23.74l-.08.28c-.1.35-.19.71-.28,1.08L36.72,61h0L32.64,78.2,28.86,62.58,22.18,37.25c-.15-.59-.33-1.14-.52-1.67l-.11-.3a15.33,15.33,0,0,0-.61-1.42l-.13-.26a12,12,0,0,0-.76-1.28h0a10,10,0,0,0-.88-1.09l-.1-.12h0c-2-2.06-4.73-3.05-8.47-3.05H0L20.22,96.45h0l1.83,6.2H42.47L44,96.45h0l6.9-27.35.14-.55h0l1.73-6.85.5-1.64.5,1.64,1.77,6.85h0l5.74,22.22h0l3.07,11.88H84.8l.4-1.43h0l9.05-32.67h0l9.24-33.35h0l2-7.14h-9.7C95.38,28.05,95,28.06,94.65,28.08Z"/><path class="cls-1" d="M172.84,53.16c0-.06,0-.12,0-.18s0-.22,0-.34,0-.17,0-.26,0-.17,0-.26,0-.35,0-.52,0-.28,0-.42,0-.22,0-.33,0-.25,0-.38,0-.38,0-.56v-.17c0-.08,0-.15,0-.22l0-.24c0-.14,0-.29,0-.43l0-.24,0-.31c0-.24-.08-.46-.11-.69s0-.22,0-.33l0-.13,0-.19,0-.1,0-.1c0-.24-.09-.46-.14-.69s-.1-.51-.16-.76l0-.07,0-.1,0-.07,0-.07v0h0l0-.14,0-.17c-.06-.24-.12-.49-.19-.72l-.06-.22-.06-.19-.11-.35-.09-.29-.09-.27-.13-.37-.11-.31-.1-.26-.12-.32-.1-.24-.11-.25-.11-.28h0v0l-.09-.23-.07-.15c-.09-.2-.18-.38-.27-.57l-.1-.2-.08-.17-.08-.16-.06-.12-.24-.44L169,38l-.14-.24-.06-.1v0h0l-.12-.18L168.4,37l-.24-.35-.2-.29-.22-.29-.36-.46,0,0-.17-.22-.14-.16-.38-.43-.23-.26h0l-.18-.19-.08-.08h0c-5.89-6-14.83-7.23-23.51-7.23h-.56c-8.23.05-15.86,1.21-23.38,4.78-3,1.39-7.44,4.16-5.92,8.95A29.81,29.81,0,0,0,117.19,49l.46-.27.64-.38.5-.29.58-.33.56-.31.57-.32.61-.32.57-.3.66-.33.56-.28.7-.33.57-.26.72-.31.6-.26.74-.29.61-.24.78-.28.62-.22.81-.25.63-.2.83-.23.66-.18.85-.19.68-.15.91-.16h.07l.65-.11.93-.12.66-.08,1-.08h0l.58,0q.83,0,1.67,0c.56,0,1.1,0,1.62,0l.72,0,.9.07.28,0,.45.06.78.11.26,0,.44.08.68.15.21.05.45.12.61.19.14,0,.46.17.6.25h0l.46.22.55.31.42.26.48.35.34.27.1.09.34.32.26.27.14.16.27.33.19.26.14.21.23.37.13.23.13.26c.07.14.13.28.19.42l.09.21.12.3c.06.16.1.32.15.48l0,.08,0,.1c0,.11.06.22.09.33s.08.36.11.54l0,.17c0,.12,0,.23.06.35s.05.45.08.67v.13c0,.11,0,.21,0,.31,0,.38,0,.78,0,1.18v2.9h-3.43l-.77,0h0l-1.88,0h-.58l-.72,0-1.57.07-.48,0-.33,0-.55,0-.69,0h0l-.67.06-.61,0h-.21L140,56l-1.17.13-1,.11-.46.05-1.1.16-.85.12-.55.08-.37.07-.71.13-.63.11-.27,0h0l-.09,0-1.09.22-1.22.27-1,.25-1.16.31-.95.27-1.1.34-.87.29-1,.38-.79.3-1,.43-.7.31-1,.48-.6.3c-.35.18-.68.37-1,.55l-.48.27c-.37.22-.73.45-1.08.68l-.29.18-.09.06h0a21,21,0,0,0-9.7,18.16c0,13.1,9.2,23.18,24.32,23.18,7.81,0,16.89-2.65,22.05-8.19a7.6,7.6,0,0,0,1.53,4.47v0h0l.1.09a4.57,4.57,0,0,0,.46.43l.16.13a5.12,5.12,0,0,0,.71.44l.22.1a6.63,6.63,0,0,0,.61.26l.31.1.69.18.28.07c.34.07.69.13,1.06.17l.23,0,1,.09.42,0,1,0h.42l1.45,0h8.32V97h0V55.22q0-.95,0-1.85C172.85,53.3,172.84,53.23,172.84,53.16ZM153.1,80.55c0,5-6.55,9.58-14.24,9.58-6.94,0-10-3.3-11-7.45,0-.13-.06-.26-.09-.4s-.07-.38-.1-.57,0-.24-.05-.37,0-.43-.06-.65,0-.21,0-.31c0-.32,0-.65,0-1a9.56,9.56,0,0,1,.06-1.19v-.08a9.08,9.08,0,0,1,.2-1.11l0-.12a9,9,0,0,1,.35-1.05l.06-.15a9.26,9.26,0,0,1,.49-1l.09-.16a9.94,9.94,0,0,1,.64-.95l.12-.16a11.12,11.12,0,0,1,.79-.9l.15-.15a12.79,12.79,0,0,1,1-.85l.16-.13c.36-.28.73-.55,1.14-.81l.16-.1c.2-.13.43-.25.65-.37s.49-.29.75-.42l.07,0c.24-.12.5-.23.76-.35s.56-.27.87-.39.61-.22.91-.33.6-.23.92-.33l.07,0c.32-.1.66-.19,1-.28l.93-.26.22-.06,1-.22.44-.09,1-.2,1-.15.51-.08.91-.13H145l1.18-.12.57-.06.66-.06.38,0q1.17-.09,2.42-.14c.95,0,1.92-.06,2.94-.06Z"/><path class="cls-1" d="M325.31,103.71h9V73.82h0V40.65h0V38.43h0V33.79h0V12.85c0-.56,0-1.09-.06-1.6,0-.06,0-.13,0-.2s0-.25,0-.37c0-.31-.06-.62-.11-.92,0-.11,0-.23-.05-.34s0-.2-.06-.31-.1-.49-.16-.72-.07-.3-.11-.44,0-.14-.05-.2c-.07-.23-.14-.44-.22-.65s-.05-.18-.08-.26h0l-.12-.31-.13-.3c-.12-.28-.25-.55-.39-.8l-.19-.33c-.15-.25-.3-.48-.47-.71l-.17-.24-.05-.07h0c-.06-.07-.12-.13-.18-.2a9,9,0,0,0-.7-.75l-.34-.3q-.34-.29-.7-.55L329.57,2c-.27-.17-.55-.33-.84-.48l-.31-.17a11.78,11.78,0,0,0-1.23-.5L327,.79c-.35-.11-.72-.21-1.09-.3L325.41.4l-.93-.16L324,.17l-1-.09-.45,0c-.48,0-1,0-1.44,0h-7.82V33.79h0V35h0v.2l-.22-.2h0l-.35-.31-.48-.43-.17-.15-.22-.18-.13-.11h0l-.41-.34-.39-.3-.3-.23-.26-.2-.49-.35-.41-.29-.08-.05-.48-.31-.48-.3-.22-.13-.1-.06h0l-.19-.11-.49-.28-.52-.27-.51-.26-.53-.24-.53-.23-.55-.21-.56-.21-.56-.18-.59-.19-.58-.15-.62-.16-.61-.13-.65-.13-.64-.1-.68-.11-.68-.08-.7-.08-.48,0h0l-.69,0-.3,0h-.1l-1.42,0h-1.73l-.34,0-.35,0-.27,0-.41,0h-.14l-.39,0h-.11l-.41,0-.35,0-.29,0-.18,0h-.08l-.17,0-.5.08-.18,0-.43.09-.36.07-.53.12-.18,0-.08,0-.3.08-.24.06-.08,0-.52.16-.4.12-.17.05-.31.1-.12,0-.14.05-.11,0-.13,0-.41.15-.22.08-.25.1-.41.17-.3.12-.07,0-.12.05-.2.09-.06,0-.34.15-.24.12-.27.13-.36.19-.28.15-.27.14-.11.06-.09.05-.08,0-.43.25-.58.35-.12.07-.11.08-.35.23-.17.11-.11.07-.36.25-.22.15-.08.06-.18.14-.73.56,0,0-.22.17,0,0h0l0,0-.1.08c-.3.24-.59.49-.87.75l-.08.07,0,0h0l-.14.13-.45.43-.51.49-.22.23-.42.45-.41.45-.29.33-.38.44-.34.41-.35.45-.33.43-.1.12h0l-.18.25-.39.55,0,.06h0l-.11.17-.11.15h0l0,.06-.21.33-.24.37-.25.4-.13.21-.24.42-.21.35-.2.36-.08.14h0l0,0,0,.06-.23.44-.36.7-.14.28-.21.44-.19.39,0,.08h0l-.12.28-.13.28-.19.44-.23.54-.12.31-.1.24-.1.26-.09.25-.2.55-.12.34-.07.19-.14.43-.23.7-.07.2,0,.13v0l0,.14-.12.42L266,52c0,.16-.09.31-.13.47h0l0,.06-.1.4-.1.39-.08.34c0,.19-.09.38-.14.58l0,.09-.06.31c-.05.24-.1.48-.15.72s-.09.45-.13.68l0,.17h0v.06l0,.15c0,.22-.07.45-.11.68s-.08.5-.12.76l0,.24,0,.15c0,.21-.05.43-.08.65l0,.3,0,.22,0,.31,0,.3v.12c0,.12,0,.24,0,.36l0,.23c0,.24-.05.47-.07.71h0c0,.16,0,.31,0,.47v.2l0,.3c0,.14,0,.28,0,.42v.2c0,.27,0,.53,0,.8,0,.09,0,.19,0,.28,0,.28,0,.56,0,.83s0,.56,0,.84h0c0,.24,0,.47,0,.7a74.57,74.57,0,0,0,.72,10.7h0l0,.21c0,.25.08.49.12.73.08.52.17,1,.27,1.55.05.28.11.55.17.82.09.46.19.91.3,1.35.07.28.13.55.2.81q.16.63.34,1.24c.07.26.15.52.23.78s.25.79.38,1.18c.08.24.16.47.24.71.15.41.3.8.46,1.19.08.19.15.39.23.57q.33.79.69,1.54l.05.12c.26.53.53,1,.8,1.54l.28.47c.19.33.38.65.58,1l.35.53c.18.28.37.55.56.81l.33.45h0l.16.2.48.6.33.4.18.21.09.11.41.44.41.44.15.16.18.17.33.32h0l.39.38.17.16.33.28.36.31.22.19.21.17.44.34.22.17.16.13.07.05.29.2.45.31.41.27.15.1.24.14.4.24.38.22.21.12h0l.05,0,.08,0,.27.14.23.12.37.18.51.25.12.06.16.08.06,0,.06,0h0l.24.1,0,0,.51.22.37.15.16.07.23.08h0l.31.12.06,0,.05,0,.42.14.35.12.25.08.23.07.46.13.23.07.3.08.1,0,.12,0h0l.27.06.32.07.45.1.22,0,.11,0h.08l.35.07.42.08.14,0,.18,0,.39.06.34.05.17,0,.18,0,.26,0,.44.05.28,0h.07l.24,0,.32,0h.35l.49,0,.26,0h.14l.35,0,.4,0h.83l1.21,0h.59c.53,0,1,0,1.55,0l.6,0q.76-.05,1.48-.13l.55-.06c.63-.08,1.23-.18,1.82-.29l.15,0c.53-.11,1-.23,1.54-.36l.49-.14q.6-.17,1.16-.37l.43-.15c.49-.18,1-.37,1.44-.58l.21-.1q.59-.27,1.16-.58l.41-.23q.48-.27.95-.56l.23-.14h0a31.25,31.25,0,0,0,4.89-4c.5,5.92,3.65,6.3,10.58,6.3Zm-12-20.79a7,7,0,0,1-3.87,6.35l-.33.18-.48.22-.34.15-.51.19-.35.13-.54.16-.36.1-.56.12-.37.08-.59.09-.36.05-.64.06-.32,0-1,0c-.56,0-1.1,0-1.62-.06l-.43,0q-.62-.05-1.21-.14l-.31,0q-.71-.12-1.37-.28l-.31-.08q-.52-.14-1-.31l-.33-.12c-.4-.15-.79-.31-1.16-.49l-.1-.05c-.34-.17-.66-.35-1-.54l-.29-.18q-.42-.27-.8-.56l-.18-.13c-.3-.24-.59-.49-.87-.76l-.21-.22q-.32-.32-.61-.66l-.21-.24c-.24-.29-.48-.6-.69-.91l-.11-.16q-.28-.41-.53-.84l-.17-.31q-.24-.44-.47-.9v0q-.34-.72-.63-1.49l0-.1-.11-.32q-.23-.64-.42-1.3l-.14-.5q-.2-.74-.36-1.51l0-.12,0-.22q-.18-.88-.31-1.78l0-.26q-.13-.93-.23-1.88l0-.23q-.09-1-.15-2v-.19c0-.48,0-1-.06-1.46,0-1-.05-1.93-.05-2.91,0-.16,0-.34,0-.54s0-.11,0-.18,0-.39,0-.61c0,0,0-.09,0-.13,0-.25,0-.52,0-.81V64q0-.36,0-.75v-.23q0-.48.08-1l0-.26c0-.29.06-.58.09-.88l0-.3q.07-.56.16-1.14l0-.24q.08-.49.18-1l0-.14,0-.2c.08-.41.17-.81.27-1.23l0-.15c.09-.37.2-.74.31-1.11l.1-.34c.12-.39.25-.78.39-1.16l0-.12c.15-.4.31-.8.49-1.19l.14-.31q.24-.52.51-1l.07-.13,0-.07c.21-.38.44-.75.68-1.11l.18-.25q.32-.46.67-.89l.16-.2h0q.43-.51.9-1,.27-.26.56-.51l.22-.18.56-.44.21-.15c.26-.18.53-.36.81-.52l.1-.05q.37-.21.77-.4l.27-.12L296,45l.28-.1c.33-.11.66-.22,1-.31l.07,0c.32-.08.66-.15,1-.21l.34-.05.85-.1.35,0c.4,0,.81,0,1.23,0a16.75,16.75,0,0,1,6.77,1.39c.32.14.62.3.93.45l.52.26c.32.17.62.36.92.55l.44.27c.35.23.68.47,1,.71l.27.19q.63.47,1.22,1V73.82h0v9.1Z"/><path class="cls-1" d="M446.57,57.29c0-.15,0-.3,0-.45q-.08-1.09-.21-2.17c0-.13,0-.26-.06-.4-.1-.69-.21-1.37-.34-2l0-.22c-.15-.72-.32-1.42-.51-2.13l-.12-.45c-.2-.7-.41-1.38-.65-2.06l-.11-.29q-.34-1-.74-1.88l-.13-.31c-.29-.66-.6-1.3-.94-1.93l-.21-.39c-.35-.64-.71-1.27-1.1-1.89l0,0h0c-5.1-8-13.93-13.63-26.57-13.7h-.24a49.06,49.06,0,0,0-7.63.57h0l-.09,0c-.91.14-1.78.32-2.64.51l-.71.18c-.61.15-1.21.31-1.79.49l-.85.27q-.78.26-1.53.55l-.67.26h0l-.32.14-.55.24-1.06.49-.32.16-.35.18q-.64.33-1.25.69l-.34.19-.1.05,0,0c-.47.28-.92.57-1.36.87l-.35.25,0,0-.39.28-.62.47-.46.36-.5.41-.23.2-.16.14-.41.36-.73.69-.31.3-.16.16c-.38.39-.75.78-1.1,1.18l-.12.13-.18.22,0,0c-.24.29-.48.57-.72.86l-.34.44-.19.25-.47.65-.3.42v0h0l0,.07-.23.35-.25.39-.29.45-.06.1-.23.39-.32.54-.08.14-.11.2-.12.22-.19.37-.41.8-.08.14-.06.11,0,.08-.12.26c-.14.29-.27.58-.4.88l-.17.38-.05.12,0,.1-.09.23c-.13.32-.27.64-.39,1l0,.11-.14.39v0l-.15.4-.17.49-.08.24-.11.35-.18.57,0,.11h0l-.05.18-.11.34-.06.22c-.09.32-.18.65-.26,1l-.09.34,0,.08q-.17.67-.31,1.33l0,.12-.07.36c-.06.3-.12.61-.18.91l0,.24,0,.3q-.08.44-.14.87l-.05.31,0,.17q-.08.54-.14,1.06l0,.22v0c0,.43-.09.85-.13,1.27v.12c0,.1,0,.2,0,.29,0,.29,0,.58-.06.87,0,.07,0,.14,0,.21s0,.15,0,.23c0,.28,0,.56,0,.84,0,.09,0,.18,0,.26s0,.08,0,.12c0,.39,0,.78,0,1.15,0,1.11,0,2.19.08,3.24,0,.3,0,.59,0,.88q.07,1.25.18,2.44c0,.23,0,.47.06.69q.16,1.48.38,2.89c0,.21.07.4.11.61q.19,1.13.43,2.21c.05.25.11.5.17.75.2.85.41,1.68.65,2.48l0,.1c.25.84.53,1.64.82,2.43l.25.64q.36.92.76,1.8l.23.52q.51,1.08,1.09,2.1l.24.4q.48.83,1,1.61l.36.53c.4.58.82,1.14,1.25,1.67l.11.14c.47.58,1,1.12,1.48,1.66l.42.43q.62.62,1.26,1.19l.4.36q.83.71,1.71,1.36l.35.24q.74.53,1.52,1l.55.34q.84.5,1.72,1l.25.13c.67.34,1.35.65,2.05.94l.22.1h0a50.25,50.25,0,0,0,19.27,3.37c8.11,0,18.85-1.87,24.6-6.37a7.79,7.79,0,0,0,2-9.87,48.63,48.63,0,0,0-4.87-7.49c-3.62,4.24-12,8.37-20,8.37-13.73.12-19.6-8.49-20.35-19.73h46.94c.25-3.12.37-6.87.37-9.61C446.64,58.79,446.61,58,446.57,57.29Zm-47.49.5a22.49,22.49,0,0,1,1.31-7.24c.12-.33.25-.66.39-1l.1-.23c.15-.34.31-.68.48-1l.07-.12q.25-.48.54-.94l.09-.15c.2-.32.42-.64.66-1l.14-.18c.24-.31.49-.62.77-.92l.07-.07c.26-.28.54-.55.83-.81l.15-.13q.45-.39,1-.74l.21-.14a12,12,0,0,1,1.09-.66,14.24,14.24,0,0,1,6.76-1.55c4.87,0,14.11,2.62,14,16.85Z"/><path class="cls-1" d="M368.1,82.9V40.65h0V12.88c0-.63,0-1.23-.07-1.81,0-.19,0-.37-.06-.55,0-.37-.08-.74-.14-1.08s-.08-.4-.12-.59-.12-.6-.2-.88-.12-.38-.18-.56-.11-.39-.18-.57h0a9.69,9.69,0,0,0-7-6.19h0L360,.6l-.77-.17-.45-.09-.84-.12-.43-.06-.93-.07-.38,0q-.66,0-1.32,0h-7.81v6.8h0v27h0v6.87h0V89.87q0,1,.07,1.86c0,.21.05.39.07.59,0,.37.08.75.14,1.09s.1.42.14.64.12.6.2.87.14.4.21.61.16.51.25.74.18.37.27.56.19.43.31.63.22.34.33.51.23.37.35.54.26.3.38.45.25.31.39.45.29.27.44.4.28.26.43.38.32.23.48.34.3.22.46.32.35.19.53.28.32.18.49.26.37.15.56.23l.52.21.6.18.54.16.63.14.56.12.66.09.57.08.68.06.58,0,.7,0h8.5Z"/><path class="cls-1" d="M313,115.44a2.16,2.16,0,0,0-.76-.3,4.23,4.23,0,0,0-.8-.08l-.38,0-.38.05-.43.06v12.49l-7-11.41a2.67,2.67,0,0,0-.87-.92,2.61,2.61,0,0,0-1.36-.3,7.9,7.9,0,0,0-.92.05l-.73.11v18.1h3.55V121.4l7.72,11.92h3.14V117.17a2.26,2.26,0,0,0-.23-1.1A1.71,1.71,0,0,0,313,115.44Z"/><path class="cls-1" d="M328.68,131a1.8,1.8,0,0,0-.69-.43,3.1,3.1,0,0,0-1.08-.16h-5.8v-5h5.75v-2.9H321.1v-4.47h5.34a2.62,2.62,0,0,0,1.82-.47,1.9,1.9,0,0,0,.49-1.42c0-.2,0-.37,0-.5a4.64,4.64,0,0,0-.07-.5h-11.3v18.16H329.1c0-.16,0-.31,0-.45s0-.3,0-.5a2.36,2.36,0,0,0-.11-.7A1.56,1.56,0,0,0,328.68,131Z"/><path class="cls-1" d="M351.95,115.06a2.12,2.12,0,0,0-1.57.57,3.22,3.22,0,0,0-.81,1.44l-3.06,11.06-3.2-11.27a2.66,2.66,0,0,0-.77-1.33,2.31,2.31,0,0,0-1.56-.46,5.59,5.59,0,0,0-.83.07l-1,.18,1.25,4.61-2.66,8.51-3.52-11.6a2.65,2.65,0,0,0-.83-1.32,2.43,2.43,0,0,0-1.56-.45,6,6,0,0,0-1,.11,4.63,4.63,0,0,0-.93.24l6,18h3l3-9.49,3.06,9.49H348l5.83-18.1q-.38-.11-.84-.2A5.46,5.46,0,0,0,351.95,115.06Z"/><path class="cls-1" d="M374.9,115.45a2.13,2.13,0,0,0-.77-.31,4.09,4.09,0,0,0-.77-.08l-.45,0-.45.05-.46.05v7.35h-6.83v-5.37a2.2,2.2,0,0,0-.23-1.08,1.81,1.81,0,0,0-.58-.64,2.13,2.13,0,0,0-.77-.31,4.34,4.34,0,0,0-.83-.08l-.39,0-.42.05-.49.05v18.13h3.71v-7.86H372v7.86h3.71V117.17a2.2,2.2,0,0,0-.23-1.08A1.81,1.81,0,0,0,374.9,115.45Z"/><path class="cls-1" d="M393.31,117.54a6.84,6.84,0,0,0-2.51-2,9.59,9.59,0,0,0-7.41,0,7.38,7.38,0,0,0-2.6,2,8.45,8.45,0,0,0-1.52,3,13.08,13.08,0,0,0-.49,3.6,14.61,14.61,0,0,0,.45,3.66,8.72,8.72,0,0,0,1.42,3,7,7,0,0,0,2.52,2.09,8.29,8.29,0,0,0,3.74.77,8.66,8.66,0,0,0,3.79-.76,7,7,0,0,0,2.58-2.07,8.59,8.59,0,0,0,1.46-3.06,14.46,14.46,0,0,0,.46-3.7,14.11,14.11,0,0,0-.46-3.69A8.32,8.32,0,0,0,393.31,117.54Zm-2.15,9.17a7.31,7.31,0,0,1-.73,2.11,3.94,3.94,0,0,1-1.34,1.46,4.18,4.18,0,0,1-4.12,0,4.06,4.06,0,0,1-1.36-1.46,7.06,7.06,0,0,1-.74-2.11,13.08,13.08,0,0,1-.23-2.49,12.67,12.67,0,0,1,.23-2.47,6.35,6.35,0,0,1,.76-2,3.8,3.8,0,0,1,3.48-1.91,3.67,3.67,0,0,1,2,.52,4,4,0,0,1,1.33,1.4,6.28,6.28,0,0,1,.73,2,13.52,13.52,0,0,1,.22,2.47A13.16,13.16,0,0,1,391.15,126.71Z"/><path class="cls-1" d="M414.91,115.12a8.16,8.16,0,0,0-1.08-.07,2.3,2.3,0,0,0-1.3.38,2.78,2.78,0,0,0-.95,1.25l-4.15,9.6-4.12-9.7a3,3,0,0,0-.79-1.1,2.06,2.06,0,0,0-1.38-.42,7.25,7.25,0,0,0-1.1.08,6.52,6.52,0,0,0-.8.16l-1.33,18h3.55l.79-11.68,3.58,7.89h3.12l3.69-8.24.84,12H417l-1.3-18A3.38,3.38,0,0,0,414.91,115.12Z"/><path class="cls-1" d="M431.56,131a1.8,1.8,0,0,0-.69-.43,3.1,3.1,0,0,0-1.08-.16H424v-5h5.75v-2.9H424v-4.47h5.34a2.62,2.62,0,0,0,1.82-.47,1.9,1.9,0,0,0,.49-1.42c0-.2,0-.37,0-.5a4.38,4.38,0,0,0-.07-.5h-11.3v18.16H432c0-.16,0-.31,0-.45s0-.3,0-.5a2.36,2.36,0,0,0-.11-.7A1.56,1.56,0,0,0,431.56,131Z"/><path class="cls-1" d="M444.07,124.19a6.37,6.37,0,0,0-1.63-1q-.89-.37-1.76-.69l-1.26-.49a5.67,5.67,0,0,1-1.07-.56,2.57,2.57,0,0,1-.73-.73,1.78,1.78,0,0,1-.27-1,1.75,1.75,0,0,1,.27-1,2,2,0,0,1,.69-.62,3.08,3.08,0,0,1,.93-.33,5.56,5.56,0,0,1,1-.1,5.48,5.48,0,0,1,2.28.49,8.24,8.24,0,0,1,1.76,1,4.75,4.75,0,0,0,.8-1.1,2.11,2.11,0,0,0,.28-.88,1.38,1.38,0,0,0-.76-1.22,4.17,4.17,0,0,0-.64-.37,7.7,7.7,0,0,0-1-.39,11.27,11.27,0,0,0-1.38-.32,9.69,9.69,0,0,0-1.67-.14,8.83,8.83,0,0,0-2.47.34,6.44,6.44,0,0,0-2.06,1,4.75,4.75,0,0,0-1.41,1.67,5,5,0,0,0-.51,2.3,4.93,4.93,0,0,0,.45,2.24,4.41,4.41,0,0,0,1.15,1.45,6.13,6.13,0,0,0,1.59.92q.88.35,1.75.65l1.34.49a5.27,5.27,0,0,1,1.12.58,2.72,2.72,0,0,1,.79.83,2.24,2.24,0,0,1,.3,1.19,2.21,2.21,0,0,1-.27,1.14,2.29,2.29,0,0,1-.69.74,3,3,0,0,1-1,.42,4.58,4.58,0,0,1-1.11.14,5.81,5.81,0,0,1-1.41-.16,6.76,6.76,0,0,1-1.21-.42,7.13,7.13,0,0,1-1-.57q-.46-.31-.84-.61a10.48,10.48,0,0,0-.8,1.22,2.38,2.38,0,0,0-.36,1.11,1.12,1.12,0,0,0,.22.68,2.11,2.11,0,0,0,.54.52,9.2,9.2,0,0,0,1.76.72,10.46,10.46,0,0,0,3.14.39,9.5,9.5,0,0,0,2.75-.38,5.93,5.93,0,0,0,2.15-1.14,5.27,5.27,0,0,0,1.4-1.86,6,6,0,0,0,.5-2.53,4.74,4.74,0,0,0-.46-2.21A4.69,4.69,0,0,0,444.07,124.19Z"/></g></g></svg>